FiraSystem-Regular.ufo
<glyph name="numbersign" format="1">
  <advance width="556"/>
  <unicode hex="0023"/>
  <outline>
    <contour>
      <point x="400" y="689" type="line"/>
      <point x="309" y="0" type="line"/>
      <point x="387" y="0" type="line"/>
      <point x="478" y="689" type="line"/>
    </contour>
    <contour>
      <point x="34" y="232" type="line"/>
      <point x="34" y="163" type="line"/>
      <point x="485" y="163" type="line"/>
      <point x="485" y="232" type="line"/>
    </contour>
    <contour>
      <point x="168" y="689" type="line"/>
      <point x="77" y="0" type="line"/>
      <point x="155" y="0" type="line"/>
      <point x="246" y="689" type="line"/>
    </contour>
    <contour>
      <point x="71" y="527" type="line"/>
      <point x="71" y="457" type="line"/>
      <point x="522" y="457" type="line"/>
      <point x="522" y="527" type="line"/>
    </contour>
  </outline>
</glyph>
<glyph name="dollar" format="1">
  <advance width="556"/>
  <unicode hex="0024"/>
  <outline>
    <contour>
      <point x="237" y="-1" type="line"/>
      <point x="237" y="-154" type="line"/>
      <point x="317" y="-154" type="line"/>
      <point x="317" y="8" type="line"/>
    </contour>
    <contour>
      <point x="237" y="847" type="line"/>
      <point x="237" y="663" type="line"/>
      <point x="317" y="665" type="line"/>
      <point x="317" y="847" type="line"/>
    </contour>
    <contour>
      <point x="148" y="695"/>
      <point x="60" y="622"/>
      <point x="60" y="519" type="curve" smooth="yes"/>
      <point x="60" y="414"/>
      <point x="129" y="364"/>
      <point x="260" y="324" type="curve" smooth="yes"/>
      <point x="375" y="288"/>
      <point x="406" y="259"/>
      <point x="406" y="193" type="curve" smooth="yes"/>
      <point x="406" y="112"/>
      <point x="340" y="73"/>
      <point x="261" y="73" type="curve" smooth="yes"/>
      <point x="187" y="73"/>
      <point x="132" y="99"/>
      <point x="86" y="143" type="curve"/>
      <point x="33" y="83" type="line"/>
      <point x="88" y="29"/>
      <point x="165" y="-4"/>
      <point x="262" y="-4" type="curve" smooth="yes"/>
      <point x="414" y="-4"/>
      <point x="503" y="79"/>
      <point x="503" y="196" type="curve" smooth="yes"/>
      <point x="503" y="326"/>
      <point x="411" y="368"/>
      <point x="303" y="401" type="curve" smooth="yes"/>
      <point x="181" y="438"/>
      <point x="155" y="466"/>
      <point x="155" y="523" type="curve" smooth="yes"/>
      <point x="155" y="587"/>
      <point x="209" y="619"/>
      <point x="277" y="619" type="curve" smooth="yes"/>
      <point x="333" y="619"/>
      <point x="381" y="601"/>
      <point x="428" y="558" type="curve"/>
      <point x="481" y="617" type="line"/>
      <point x="426" y="668"/>
      <point x="367" y="695"/>
      <point x="273" y="695" type="curve" smooth="yes"/>
    </contour>
    <contour>
      <point x="280" y="8" type="move" name="bottom"/>
    </contour>
  </outline>
</glyph>
<glyph name="zero" format="1">
  <advance width="556"/>
  <unicode hex="0030"/>
  <outline>
    <contour>
      <point x="128" y="701"/>
      <point x="54" y="578"/>
      <point x="54" y="345" type="curve" smooth="yes"/>
      <point x="54" y="112"/>
      <point x="128" y="-12"/>
      <point x="278" y="-12" type="curve" smooth="yes"/>
      <point x="428" y="-12"/>
      <point x="502" y="112"/>
      <point x="502" y="345" type="curve" smooth="yes"/>
      <point x="502" y="577"/>
      <point x="428" y="701"/>
      <point x="278" y="701" type="curve" smooth="yes"/>
    </contour>
    <contour>
      <point x="361" y="628"/>
      <point x="406" y="552"/>
      <point x="406" y="345" type="curve" smooth="yes"/>
      <point x="406" y="137"/>
      <point x="361" y="61"/>
      <point x="278" y="61" type="curve" smooth="yes"/>
      <point x="194" y="61"/>
      <point x="150" y="137"/>
      <point x="150" y="345" type="curve" smooth="yes"/>
      <point x="150" y="552"/>
      <point x="194" y="628"/>
      <point x="278" y="628" type="curve" smooth="yes"/>
    </contour>
  </outline>
</glyph>
<glyph name="four" format="1">
  <advance width="556"/>
  <unicode hex="0034"/>
  <outline>
    <contour>
      <point x="47" y="231" type="line"/>
      <point x="47" y="165" type="line"/>
      <point x="509" y="165" type="line"/>
      <point x="509" y="238" type="line"/>
      <point x="144" y="238" type="line"/>
      <point x="325" y="669" type="line"/>
      <point x="248" y="701" type="line"/>
    </contour>
    <contour>
      <point x="342" y="430" type="line"/>
      <point x="333" y="222" type="line"/>
      <point x="333" y="0" type="line"/>
      <point x="422" y="0" type="line"/>
      <point x="422" y="430" type="line"/>
    </contour>
  </outline>
</glyph>
<glyph name="five" format="1">
  <advance width="556"/>
  <unicode hex="0035"/>
  <outline>
    <contour>
      <point x="94" y="689" type="line"/>
      <point x="94" y="342" type="line"/>
      <point x="166" y="342" type="line"/>
      <point x="205" y="357"/>
      <point x="232" y="365"/>
      <point x="271" y="365" type="curve" smooth="yes"/>
      <point x="339" y="365"/>
      <point x="392" y="329"/>
      <point x="392" y="221" type="curve" smooth="yes"/>
      <point x="392" y="118"/>
      <point x="339" y="63"/>
      <point x="250" y="63" type="curve"/>
      <point x="192" y="63"/>
      <point x="145" y="84"/>
      <point x="104" y="127" type="curve"/>
      <point x="48" y="73" type="line"/>
      <point x="101" y="20"/>
      <point x="166" y="-12"/>
      <point x="251" y="-12" type="curve"/>
      <point x="395" y="-12"/>
      <point x="488" y="81"/>
      <point x="488" y="219" type="curve" smooth="yes"/>
      <point x="488" y="357"/>
      <point x="411" y="436"/>
      <point x="299" y="436" type="curve" smooth="yes"/>
      <point x="259" y="436"/>
      <point x="223" y="429"/>
      <point x="182" y="407" type="curve"/>
      <point x="182" y="617" type="line"/>
      <point x="452" y="617" type="line"/>
      <point x="465" y="689" type="line"/>
    </contour>
  </outline>
</glyph>
<glyph name="six" format="1">
  <advance width="556"/>
  <unicode hex="0036"/>
  <outline>
    <contour>
      <point x="158" y="701"/>
      <point x="61" y="553"/>
      <point x="61" y="324" type="curve" smooth="yes"/>
      <point x="61" y="122"/>
      <point x="124" y="-12"/>
      <point x="290" y="-12" type="curve" smooth="yes"/>
      <point x="410" y="-12"/>
      <point x="507" y="81"/>
      <point x="507" y="232" type="curve" smooth="yes"/>
      <point x="507" y="379"/>
      <point x="418" y="450"/>
      <point x="315" y="450" type="curve"/>
      <point x="247" y="450"/>
      <point x="189" y="419"/>
      <point x="144" y="345" type="curve"/>
      <point x="146" y="268" type="line"/>
      <point x="179" y="332"/>
      <point x="233" y="377"/>
      <point x="299" y="377" type="curve"/>
      <point x="366" y="377"/>
      <point x="413" y="340"/>
      <point x="413" y="229" type="curve" smooth="yes"/>
      <point x="413" y="126"/>
      <point x="371" y="61"/>
      <point x="290" y="61" type="curve" smooth="yes"/>
      <point x="194" y="61"/>
      <point x="155" y="137"/>
      <point x="155" y="305" type="curve"/>
      <point x="154" y="339" type="line"/>
      <point x="153" y="515"/>
      <point x="214" y="628"/>
      <point x="318" y="628" type="curve" smooth="yes"/>
      <point x="355" y="628"/>
      <point x="390" y="618"/>
      <point x="421" y="599" type="curve"/>
      <point x="457" y="660" type="line"/>
      <point x="418" y="686"/>
      <point x="373" y="701"/>
      <point x="319" y="701" type="curve" smooth="yes"/>
    </contour>
  </outline>
</glyph>
<glyph name="nine" format="1">
  <advance width="556"/>
  <unicode hex="0039"/>
  <outline>
    <contour>
      <point x="149" y="701"/>
      <point x="49" y="620"/>
      <point x="49" y="472" type="curve" smooth="yes"/>
      <point x="49" y="335"/>
      <point x="132" y="251"/>
      <point x="238" y="251" type="curve"/>
      <point x="312" y="251"/>
      <point x="367" y="292"/>
      <point x="394" y="338" type="curve"/>
      <point x="399" y="420" type="line"/>
      <point x="366" y="362"/>
      <point x="320" y="323"/>
      <point x="257" y="323" type="curve"/>
      <point x="190" y="323"/>
      <point x="144" y="367"/>
      <point x="144" y="470" type="curve" smooth="yes"/>
      <point x="144" y="574"/>
      <point x="189" y="628"/>
      <point x="267" y="628" type="curve" smooth="yes"/>
      <point x="357" y="628"/>
      <point x="398" y="566"/>
      <point x="391" y="387" type="curve"/>
      <point x="390" y="341" type="line"/>
      <point x="388" y="175"/>
      <point x="278" y="96"/>
      <point x="103" y="47" type="curve"/>
      <point x="124" y="-22" type="line"/>
      <point x="375" y="49"/>
      <point x="487" y="142"/>
      <point x="487" y="433" type="curve" smooth="yes"/>
      <point x="487" y="597"/>
      <point x="414" y="701"/>
      <point x="267" y="701" type="curve" smooth="yes"/>
    </contour>
  </outline>
</glyph>
<glyph name="section" format="1">
  <advance width="556"/>
  <unicode hex="00A7"/>
  <outline>
    <contour>
      <point x="184" y="702"/>
      <point x="100" y="649"/>
      <point x="100" y="553" type="curve" smooth="yes"/>
      <point x="100" y="461"/>
      <point x="160" y="426"/>
      <point x="278" y="387" type="curve" smooth="yes"/>
      <point x="369" y="357"/>
      <point x="391" y="339"/>
      <point x="391" y="292" type="curve" smooth="yes"/>
      <point x="391" y="264"/>
      <point x="370" y="231"/>
      <point x="338" y="206" type="curve"/>
      <point x="390" y="177" type="line"/>
      <point x="439" y="206"/>
      <point x="479" y="249"/>
      <point x="479" y="302" type="curve" smooth="yes"/>
      <point x="479" y="381"/>
      <point x="429" y="417"/>
      <point x="318" y="452" type="curve" smooth="yes"/>
      <point x="212" y="485"/>
      <point x="191" y="507"/>
      <point x="191" y="560" type="curve" smooth="yes"/>
      <point x="191" y="606"/>
      <point x="230" y="631"/>
      <point x="291" y="631" type="curve" smooth="yes"/>
      <point x="351" y="631"/>
      <point x="391" y="617"/>
      <point x="433" y="590" type="curve"/>
      <point x="468" y="648" type="line"/>
      <point x="424" y="680"/>
      <point x="371" y="702"/>
      <point x="292" y="702" type="curve" smooth="yes"/>
    </contour>
    <contour>
      <point x="117" y="429"/>
      <point x="76" y="380"/>
      <point x="76" y="323" type="curve" smooth="yes"/>
      <point x="76" y="243"/>
      <point x="126" y="207"/>
      <point x="236" y="174" type="curve" smooth="yes"/>
      <point x="343" y="142"/>
      <point x="365" y="125"/>
      <point x="365" y="72" type="curve" smooth="yes"/>
      <point x="365" y="24"/>
      <point x="321" y="1"/>
      <point x="260" y="1" type="curve" smooth="yes"/>
      <point x="201" y="1"/>
      <point x="159" y="13"/>
      <point x="118" y="41" type="curve"/>
      <point x="84" y="-21" type="line"/>
      <point x="125" y="-50"/>
      <point x="181" y="-71"/>
      <point x="257" y="-71" type="curve" smooth="yes"/>
      <point x="376" y="-71"/>
      <point x="457" y="-15"/>
      <point x="457" y="81" type="curve" smooth="yes"/>
      <point x="457" y="166"/>
      <point x="395" y="203"/>
      <point x="265" y="243" type="curve" smooth="yes"/>
      <point x="186" y="267"/>
      <point x="165" y="287"/>
      <point x="165" y="335" type="curve" smooth="yes"/>
      <point x="165" y="363"/>
      <point x="184" y="398"/>
      <point x="217" y="424" type="curve"/>
      <point x="165" y="455" type="line"/>
    </contour>
  </outline>
</glyph>
<glyph name="Eth" format="1">
  <advance width="656.0"/>
  <unicode hex="00D0"/>
  <outline>
    <contour>
      <point x="112" y="388" type="line"/>
      <point x="20" y="388" type="line"/>
      <point x="20" y="318" type="line"/>
      <point x="364" y="318" type="line"/>
      <point x="364" y="388" type="line"/>
    </contour>
    <contour>
      <point x="112" y="689" type="line"/>
      <point x="112" y="0" type="line"/>
      <point x="277" y="0" type="line" smooth="yes"/>
      <point x="426" y="0"/>
      <point x="601" y="67"/>
      <point x="601" y="348" type="curve" smooth="yes"/>
      <point x="601" y="634"/>
      <point x="432" y="689"/>
      <point x="256" y="689" type="curve" smooth="yes"/>
    </contour>
    <contour>
      <point x="387" y="613"/>
      <point x="500" y="581"/>
      <point x="500" y="348" type="curve" smooth="yes"/>
      <point x="500" y="121"/>
      <point x="392" y="75"/>
      <point x="284" y="75" type="curve" smooth="yes"/>
      <point x="207" y="75" type="line"/>
      <point x="207" y="613" type="line"/>
      <point x="277" y="613" type="line" smooth="yes"/>
    </contour>
  </outline>
</glyph>
<glyph name="Hbar" format="1">
  <advance width="688.0"/>
  <unicode hex="0126"/>
  <outline>
    <contour>
      <point x="584" y="577" type="line"/>
      <point x="35" y="577" type="line"/>
      <point x="35" y="508" type="line"/>
      <point x="104" y="508" type="line"/>
      <point x="653" y="508" type="line"/>
      <point x="653" y="577" type="line"/>
    </contour>
    <contour>
      <point x="584" y="0" type="line"/>
      <point x="584" y="689" type="line"/>
      <point x="489" y="689" type="line"/>
      <point x="489" y="401" type="line"/>
      <point x="199" y="401" type="line"/>
      <point x="199" y="689" type="line"/>
      <point x="104" y="689" type="line"/>
      <point x="104" y="0" type="line"/>
      <point x="199" y="0" type="line"/>
      <point x="199" y="323" type="line"/>
      <point x="489" y="323" type="line"/>
      <point x="489" y="0" type="line"/>
    </contour>
  </outline>
</glyph>
<glyph name="hbar" format="1">
  <advance width="592.0"/>
  <unicode hex="0127"/>
  <outline>
    <contour>
      <point x="25" y="676" type="line"/>
      <point x="25" y="606" type="line"/>
      <point x="104" y="606" type="line"/>
      <point x="339" y="606" type="line"/>
      <point x="349" y="676" type="line"/>
    </contour>
    <contour>
      <point x="273" y="539"/>
      <point x="215" y="495"/>
      <point x="177" y="430" type="curve"/>
      <point x="193" y="375" type="line"/>
      <point x="228" y="430"/>
      <point x="269" y="467"/>
      <point x="326" y="467" type="curve" smooth="yes"/>
      <point x="376" y="467"/>
      <point x="410" y="444"/>
      <point x="410" y="365" type="curve" smooth="yes"/>
      <point x="410" y="0" type="line"/>
      <point x="502" y="0" type="line"/>
      <point x="502" y="378" type="line" smooth="yes"/>
      <point x="502" y="477"/>
      <point x="445" y="539"/>
      <point x="349" y="539" type="curve" smooth="yes"/>
    </contour>
    <contour>
      <point x="101" y="738" type="line"/>
      <point x="101" y="0" type="line"/>
      <point x="193" y="0" type="line"/>
      <point x="193" y="748" type="line"/>
    </contour>
  </outline>
</glyph>
<glyph name="Lslash" format="1">
  <advance width="514.0"/>
  <unicode hex="0141"/>
  <outline>
    <contour>
      <point x="116" y="340" type="line"/>
      <point x="22" y="282" type="line"/>
      <point x="60" y="222" type="line"/>
      <point x="409" y="438" type="line"/>
      <point x="371" y="498" type="line"/>
    </contour>
    <contour>
      <point x="116" y="689" type="line"/>
      <point x="116" y="0" type="line"/>
      <point x="483" y="0" type="line"/>
      <point x="494" y="83" type="line"/>
      <point x="211" y="83" type="line"/>
      <point x="211" y="689" type="line"/>
    </contour>
  </outline>
</glyph>
<glyph name="lslash" format="1">
  <advance width="302.0"/>
  <unicode hex="0142"/>
  <outline>
    <contour>
      <point x="14" y="341" type="line"/>
      <point x="45" y="275" type="line"/>
      <point x="290" y="425" type="line"/>
      <point x="259" y="491" type="line"/>
    </contour>
    <contour>
      <point x="97" y="739" type="line"/>
      <point x="97" y="104" type="line" smooth="yes"/>
      <point x="97" y="28"/>
      <point x="135" y="-12"/>
      <point x="202" y="-12" type="curve" smooth="yes"/>
      <point x="229" y="-12"/>
      <point x="255" y="-6"/>
      <point x="280" y="6" type="curve"/>
      <point x="256" y="70" type="line"/>
      <point x="246" y="66"/>
      <point x="235" y="64"/>
      <point x="222" y="64" type="curve" smooth="yes"/>
      <point x="198" y="64"/>
      <point x="189" y="78"/>
      <point x="189" y="106" type="curve" smooth="yes"/>
      <point x="189" y="750" type="line"/>
    </contour>
  </outline>
</glyph>
<glyph name="Tbar" format="1">
  <advance width="519.0"/>
  <unicode hex="0166"/>
  <outline>
    <contour>
      <point x="88" y="387" type="line"/>
      <point x="88" y="317" type="line"/>
      <point x="212" y="317" type="line"/>
      <point x="431" y="317" type="line"/>
      <point x="431" y="387" type="line"/>
    </contour>
    <contour>
      <point x="15" y="687" type="line"/>
      <point x="15" y="606" type="line"/>
      <point x="211" y="606" type="line"/>
      <point x="211" y="-2" type="line"/>
      <point x="306" y="-2" type="line"/>
      <point x="306" y="606" type="line"/>
      <point x="497" y="606" type="line"/>
      <point x="507" y="687" type="line"/>
    </contour>
  </outline>
</glyph>
<glyph name="tbar" format="1">
  <advance width="361.0"/>
  <unicode hex="0167"/>
  <outline>
    <contour>
      <point x="101" y="357" type="line"/>
      <point x="20" y="357" type="line"/>
      <point x="20" y="286" type="line"/>
      <point x="298" y="286" type="line"/>
      <point x="308" y="357" type="line"/>
    </contour>
    <contour>
      <point x="101" y="646" type="line"/>
      <point x="101" y="138" type="line" smooth="yes"/>
      <point x="101" y="40"/>
      <point x="154" y="-12"/>
      <point x="243" y="-12" type="curve" smooth="yes"/>
      <point x="288" y="-12"/>
      <point x="326" y="0"/>
      <point x="361" y="24" type="curve"/>
      <point x="326" y="87" type="line"/>
      <point x="300" y="71"/>
      <point x="279" y="64"/>
      <point x="256" y="64" type="curve" smooth="yes"/>
      <point x="210" y="64"/>
      <point x="193" y="89"/>
      <point x="193" y="142" type="curve" smooth="yes"/>
      <point x="193" y="657" type="line"/>
    </contour>
    <contour>
      <point x="9" y="527" type="line"/>
      <point x="9" y="456" type="line"/>
      <point x="308" y="456" type="line"/>
      <point x="318" y="527" type="line"/>
    </contour>
  </outline>
</glyph>
<glyph name="Epsilon" format="1">
  <advance width="535.0"/>
  <unicode hex="0395"/>
  <outline>
    <component base="E"/>
    <contour>
      <point x="90" y="689" type="move" name="topleft"/>
    </contour>
    <contour>
      <point x="290" y="689" type="move" name="top"/>
    </contour>
  </outline>
</glyph>
<glyph name="uni040B" format="1">
  <advance width="717.0"/>
  <unicode hex="040B"/>
  <outline>
    <contour>
      <point x="15" y="689" type="line"/>
      <point x="15" y="608" type="line"/>
      <point x="497" y="608" type="line"/>
      <point x="507" y="689" type="line"/>
    </contour>
    <contour>
      <point x="393" y="452"/>
      <point x="337" y="421"/>
      <point x="296" y="372" type="curve"/>
      <point x="296" y="284" type="line"/>
      <point x="335" y="338"/>
      <point x="381" y="371"/>
      <point x="456" y="371" type="curve" smooth="yes"/>
      <point x="547" y="371"/>
      <point x="587" y="323"/>
      <point x="587" y="234" type="curve" smooth="yes"/>
      <point x="587" y="0" type="line"/>
      <point x="682" y="0" type="line"/>
      <point x="682" y="235" type="line" smooth="yes"/>
      <point x="682" y="371"/>
      <point x="608" y="452"/>
      <point x="478" y="452" type="curve" smooth="yes"/>
    </contour>
    <contour>
      <point x="211" y="689" type="line"/>
      <point x="211" y="0" type="line"/>
      <point x="306" y="0" type="line"/>
      <point x="306" y="689" type="line"/>
    </contour>
  </outline>
</glyph>
<glyph name="uni0414" format="1">
  <advance width="611.0"/>
  <unicode hex="0414"/>
  <outline>
    <contour>
      <point x="161" y="689" type="line"/>
      <point x="136" y="489" type="line" smooth="yes"/>
      <point x="99" y="201"/>
      <point x="91" y="131"/>
      <point x="37" y="78" type="curve"/>
      <point x="37" y="0" type="line"/>
      <point x="511" y="0" type="line"/>
      <point x="511" y="689" type="line"/>
    </contour>
    <contour>
      <point x="416" y="78" type="line"/>
      <point x="117" y="78" type="line"/>
      <point x="187" y="133"/>
      <point x="199" y="213"/>
      <point x="230" y="485" type="curve" smooth="yes"/>
      <point x="244" y="611" type="line"/>
      <point x="416" y="611" type="line"/>
    </contour>
    <contour>
      <point x="438" y="78" type="line"/>
      <point x="438" y="0" type="line"/>
      <point x="477" y="0" type="line"/>
      <point x="492" y="-150" type="line"/>
      <point x="567" y="-150" type="line"/>
      <point x="567" y="78" type="line"/>
    </contour>
    <contour>
      <point x="119" y="78" type="line"/>
      <point x="-10" y="78" type="line"/>
      <point x="-10" y="-150" type="line"/>
      <point x="65" y="-150" type="line"/>
      <point x="80" y="0" type="line"/>
      <point x="119" y="0" type="line"/>
    </contour>
  </outline>
</glyph>
<glyph name="uni042A" format="1">
  <advance width="642.0"/>
  <unicode hex="042A"/>
  <outline>
    <contour>
      <point x="263" y="689" type="line"/>
      <point x="0" y="689" type="line"/>
      <point x="0" y="608" type="line"/>
      <point x="168" y="608" type="line"/>
    </contour>
    <contour>
      <point x="168" y="0" type="line"/>
      <point x="350" y="0" type="line" smooth="yes"/>
      <point x="506" y="0"/>
      <point x="617" y="61"/>
      <point x="617" y="223" type="curve" smooth="yes"/>
      <point x="617" y="368"/>
      <point x="515" y="436"/>
      <point x="354" y="436" type="curve" smooth="yes"/>
      <point x="247" y="436" type="line"/>
      <point x="247" y="362" type="line"/>
      <point x="355" y="362" type="line" smooth="yes"/>
      <point x="456" y="362"/>
      <point x="516" y="326"/>
      <point x="516" y="221" type="curve" smooth="yes"/>
      <point x="516" y="103"/>
      <point x="449" y="76"/>
      <point x="358" y="76" type="curve" smooth="yes"/>
      <point x="263" y="76" type="line"/>
      <point x="263" y="689" type="line"/>
      <point x="168" y="689" type="line"/>
    </contour>
  </outline>
</glyph>
<glyph name="uni044A" format="1">
  <advance width="569.0"/>
  <unicode hex="044A"/>
  <outline>
    <contour>
      <point x="240" y="527" type="line"/>
      <point x="0" y="527" type="line"/>
      <point x="0" y="457" type="line"/>
      <point x="148" y="457" type="line"/>
    </contour>
    <contour>
      <point x="224" y="287" type="line"/>
      <point x="309" y="287" type="line" smooth="yes"/>
      <point x="406" y="287"/>
      <point x="436" y="250"/>
      <point x="436" y="180" type="curve" smooth="yes"/>
      <point x="436" y="98"/>
      <point x="388" y="72"/>
      <point x="319" y="72" type="curve" smooth="yes"/>
      <point x="240" y="72" type="line"/>
      <point x="240" y="527" type="line"/>
      <point x="148" y="527" type="line"/>
      <point x="148" y="0" type="line"/>
      <point x="327" y="0" type="line"/>
      <point x="434" y="0"/>
      <point x="534" y="54"/>
      <point x="534" y="180" type="curve" smooth="yes"/>
      <point x="534" y="287"/>
      <point x="475" y="357"/>
      <point x="310" y="357" type="curve" smooth="yes"/>
      <point x="224" y="357" type="line"/>
    </contour>
  </outline>
</glyph>
<glyph name="uni0490" format="1">
  <advance width="508"/>
  <unicode hex="0490"/>
  <outline>
    <contour>
      <point x="498" y="689" type="line"/>
      <point x="498" y="816" type="line"/>
      <point x="406" y="816" type="line"/>
      <point x="406" y="679" type="line"/>
    </contour>
    <contour>
      <point x="100" y="0" type="line"/>
      <point x="195" y="0" type="line"/>
      <point x="195" y="623" type="line"/>
      <point x="100" y="689" type="line"/>
    </contour>
    <contour>
      <point x="100" y="689" type="line"/>
      <point x="179" y="607" type="line"/>
      <point x="484" y="607" type="line"/>
      <point x="498" y="689" type="line"/>
    </contour>
  </outline>
</glyph>
<glyph name="uni0491" format="1">
  <advance width="427.0"/>
  <unicode hex="0491"/>
  <outline>
    <contour>
      <point x="424" y="527" type="line"/>
      <point x="424" y="662" type="line"/>
      <point x="332" y="662" type="line"/>
      <point x="332" y="517" type="line"/>
    </contour>
    <contour>
      <point x="187" y="451" type="line"/>
      <point x="412" y="451" type="line"/>
      <point x="424" y="527" type="line"/>
      <point x="95" y="527" type="line"/>
      <point x="95" y="0" type="line"/>
      <point x="187" y="0" type="line"/>
    </contour>
  </outline>
</glyph>
<glyph name="uni0492" format="1">
  <advance width="516.0"/>
  <unicode hex="0492"/>
  <outline>
    <contour>
      <point x="10" y="413" type="line"/>
      <point x="10" y="343" type="line"/>
      <point x="108" y="343" type="line"/>
      <point x="359" y="343" type="line"/>
      <point x="359" y="413" type="line"/>
    </contour>
    <contour>
      <point x="108" y="0" type="line"/>
      <point x="203" y="0" type="line"/>
      <point x="203" y="623" type="line"/>
      <point x="108" y="689" type="line"/>
    </contour>
    <contour>
      <point x="108" y="689" type="line"/>
      <point x="187" y="607" type="line"/>
      <point x="492" y="607" type="line"/>
      <point x="506" y="689" type="line"/>
    </contour>
  </outline>
</glyph>
<glyph name="uni0493" format="1">
  <advance width="441.0"/>
  <unicode hex="0493"/>
  <outline>
    <contour>
      <point x="107" y="303" type="line"/>
      <point x="25" y="303" type="line"/>
      <point x="25" y="233" type="line"/>
      <point x="313" y="233" type="line"/>
      <point x="313" y="303" type="line"/>
    </contour>
    <contour>
      <point x="199" y="451" type="line"/>
      <point x="424" y="451" type="line"/>
      <point x="436" y="527" type="line"/>
      <point x="107" y="527" type="line"/>
      <point x="107" y="0" type="line"/>
      <point x="199" y="0" type="line"/>
    </contour>
  </outline>
</glyph>
<glyph name="uni04A0" format="1">
  <advance width="657.0"/>
  <unicode hex="04A0"/>
  <outline>
    <contour>
      <point x="0" y="689" type="line"/>
      <point x="0" y="608" type="line"/>
      <point x="188" y="608" type="line"/>
      <point x="243" y="689" type="line"/>
    </contour>
    <contour>
      <point x="528" y="689" type="line"/>
      <point x="358" y="401" type="line"/>
      <point x="263" y="401" type="line"/>
      <point x="263" y="689" type="line"/>
      <point x="168" y="689" type="line"/>
      <point x="168" y="0" type="line"/>
      <point x="263" y="0" type="line"/>
      <point x="263" y="323" type="line"/>
      <point x="357" y="323" type="line"/>
      <point x="537" y="0" type="line"/>
      <point x="647" y="0" type="line"/>
      <point x="437" y="366" type="line"/>
      <point x="628" y="689" type="line"/>
    </contour>
  </outline>
</glyph>
<glyph name="uni04A1" format="1">
  <advance width="572.0"/>
  <unicode hex="04A1"/>
  <outline>
    <contour>
      <point x="240" y="527" type="line"/>
      <point x="0" y="527" type="line"/>
      <point x="0" y="457" type="line"/>
      <point x="148" y="457" type="line"/>
    </contour>
    <contour>
      <point x="442" y="527" type="line"/>
      <point x="309" y="315" type="line"/>
      <point x="240" y="315" type="line"/>
      <point x="240" y="527" type="line"/>
      <point x="148" y="527" type="line"/>
      <point x="148" y="0" type="line"/>
      <point x="240" y="0" type="line"/>
      <point x="240" y="243" type="line"/>
      <point x="307" y="243" type="line"/>
      <point x="453" y="0" type="line"/>
      <point x="562" y="0" type="line"/>
      <point x="383" y="283" type="line"/>
      <point x="543" y="527" type="line"/>
    </contour>
  </outline>
</glyph>
<glyph name="uni04B1" format="1">
  <advance width="492.0"/>
  <unicode hex="04B1"/>
  <outline>
    <contour>
      <point x="291" y="2" type="line"/>
      <point x="395" y="2" type="line"/>
      <point x="395" y="72" type="line"/>
      <point x="97" y="72" type="line"/>
      <point x="97" y="2" type="line"/>
      <point x="201" y="2" type="line"/>
    </contour>
    <contour>
      <point x="387" y="527" type="line"/>
      <point x="248" y="101" type="line"/>
      <point x="108" y="527" type="line"/>
      <point x="10" y="527" type="line"/>
      <point x="201" y="15" type="line"/>
      <point x="201" y="-213" type="line"/>
      <point x="291" y="-202" type="line"/>
      <point x="291" y="15" type="line"/>
      <point x="482" y="527" type="line"/>
    </contour>
  </outline>
</glyph>
<glyph name="uni04B8" format="1">
  <advance width="617.0"/>
  <unicode hex="04B8"/>
  <outline>
    <contour>
      <point x="251" y="540" type="line"/>
      <point x="251" y="120" type="line"/>
      <point x="310" y="120" type="line"/>
      <point x="310" y="540" type="line"/>
    </contour>
    <contour>
      <point x="40" y="689" type="line"/>
      <point x="40" y="424" type="line" smooth="yes"/>
      <point x="40" y="297"/>
      <point x="120" y="217"/>
      <point x="242" y="217" type="curve" smooth="yes"/>
      <point x="321" y="217"/>
      <point x="370" y="240"/>
      <point x="436" y="292" type="curve"/>
      <point x="426" y="365" type="line"/>
      <point x="393" y="329"/>
      <point x="343" y="298"/>
      <point x="266" y="298" type="curve" smooth="yes"/>
      <point x="182" y="298"/>
      <point x="135" y="339"/>
      <point x="135" y="431" type="curve" smooth="yes"/>
      <point x="135" y="689" type="line"/>
    </contour>
    <contour>
      <point x="417" y="689" type="line"/>
      <point x="417" y="0" type="line"/>
      <point x="512" y="0" type="line"/>
      <point x="512" y="689" type="line"/>
    </contour>
  </outline>
</glyph>
<glyph name="uni04B9" format="1">
  <advance width="552.0"/>
  <unicode hex="04B9"/>
  <outline>
    <contour>
      <point x="225" y="390" type="line"/>
      <point x="225" y="90" type="line"/>
      <point x="280" y="90" type="line"/>
      <point x="280" y="390" type="line"/>
    </contour>
    <contour>
      <point x="374" y="303" type="line"/>
      <point x="348" y="261"/>
      <point x="281" y="234"/>
      <point x="231" y="234" type="curve" smooth="yes"/>
      <point x="174" y="234"/>
      <point x="147" y="261"/>
      <point x="147" y="329" type="curve" smooth="yes"/>
      <point x="147" y="527" type="line"/>
      <point x="55" y="527" type="line"/>
      <point x="55" y="318" type="line" smooth="yes"/>
      <point x="55" y="220"/>
      <point x="105" y="162"/>
      <point x="206" y="162" type="curve" smooth="yes"/>
      <point x="273" y="162"/>
      <point x="338" y="189"/>
      <point x="375" y="230" type="curve"/>
    </contour>
    <contour>
      <point x="365" y="0" type="line"/>
      <point x="457" y="0" type="line"/>
      <point x="457" y="527" type="line"/>
      <point x="365" y="527" type="line"/>
    </contour>
  </outline>
</glyph>
<glyph name="uni04CB" format="1">
  <advance width="612.0"/>
  <unicode hex="04CB"/>
  <outline>
    <contour>
      <point x="40" y="689" type="line"/>
      <point x="40" y="424" type="line" smooth="yes"/>
      <point x="40" y="297"/>
      <point x="120" y="217"/>
      <point x="242" y="217" type="curve" smooth="yes"/>
      <point x="321" y="217"/>
      <point x="370" y="240"/>
      <point x="436" y="292" type="curve"/>
      <point x="426" y="365" type="line"/>
      <point x="393" y="329"/>
      <point x="343" y="298"/>
      <point x="266" y="298" type="curve" smooth="yes"/>
      <point x="182" y="298"/>
      <point x="135" y="339"/>
      <point x="135" y="431" type="curve" smooth="yes"/>
      <point x="135" y="689" type="line"/>
    </contour>
    <contour>
      <point x="417" y="689" type="line"/>
      <point x="417" y="0" type="line"/>
      <point x="512" y="0" type="line"/>
      <point x="512" y="689" type="line"/>
    </contour>
    <contour>
      <point x="466" y="78" type="line"/>
      <point x="337" y="78" type="line"/>
      <point x="337" y="-150" type="line"/>
      <point x="412" y="-150" type="line"/>
      <point x="427" y="0" type="line"/>
      <point x="466" y="0" type="line"/>
    </contour>
  </outline>
</glyph>
<glyph name="dagger" format="1">
  <advance width="556"/>
  <unicode hex="2020"/>
  <outline>
    <contour>
      <point x="234" y="689" type="line"/>
      <point x="234" y="542" type="line"/>
      <point x="55" y="542" type="line"/>
      <point x="55" y="465" type="line"/>
      <point x="234" y="465" type="line"/>
      <point x="234" y="0" type="line"/>
      <point x="322" y="0" type="line"/>
      <point x="322" y="465" type="line"/>
      <point x="501" y="465" type="line"/>
      <point x="501" y="542" type="line"/>
      <point x="322" y="542" type="line"/>
      <point x="322" y="689" type="line"/>
    </contour>
  </outline>
</glyph>
<glyph name="daggerdbl" format="1">
  <advance width="556"/>
  <unicode hex="2021"/>
  <outline>
    <contour>
      <point x="55" y="269" type="line"/>
      <point x="55" y="192" type="line"/>
      <point x="501" y="192" type="line"/>
      <point x="501" y="269" type="line"/>
    </contour>
    <contour>
      <point x="234" y="689" type="line"/>
      <point x="234" y="542" type="line"/>
      <point x="55" y="542" type="line"/>
      <point x="55" y="465" type="line"/>
      <point x="234" y="465" type="line"/>
      <point x="234" y="0" type="line"/>
      <point x="322" y="0" type="line"/>
      <point x="322" y="465" type="line"/>
      <point x="501" y="465" type="line"/>
      <point x="501" y="542" type="line"/>
      <point x="322" y="542" type="line"/>
      <point x="322" y="689" type="line"/>
    </contour>
  </outline>
</glyph>
<glyph name="Euro" format="1">
  <advance width="556"/>
  <unicode hex="20AC"/>
  <outline>
    <contour>
      <point x="237" y="701"/>
      <point x="135" y="610"/>
      <point x="108" y="432" type="curve"/>
      <point x="108" y="262" type="line"/>
      <point x="129" y="80"/>
      <point x="219" y="-12"/>
      <point x="363" y="-12" type="curve" smooth="yes"/>
      <point x="426" y="-12"/>
      <point x="472" y="4"/>
      <point x="517" y="26" type="curve"/>
      <point x="517" y="106" type="line"/>
      <point x="478" y="85"/>
      <point x="435" y="65"/>
      <point x="377" y="65" type="curve" smooth="yes"/>
      <point x="271" y="65"/>
      <point x="219" y="121"/>
      <point x="206" y="266" type="curve"/>
      <point x="206" y="424" type="line"/>
      <point x="227" y="569"/>
      <point x="287" y="625"/>
      <point x="371" y="625" type="curve" smooth="yes"/>
      <point x="427" y="625"/>
      <point x="465" y="611"/>
      <point x="513" y="582" type="curve"/>
      <point x="549" y="645" type="line"/>
      <point x="494" y="682"/>
      <point x="436" y="701"/>
      <point x="367" y="701" type="curve" smooth="yes"/>
    </contour>
    <contour>
      <point x="38" y="302" type="line"/>
      <point x="23" y="241" type="line"/>
      <point x="419" y="241" type="line"/>
      <point x="433" y="302" type="line"/>
    </contour>
    <contour>
      <point x="38" y="454" type="line"/>
      <point x="23" y="392" type="line"/>
      <point x="452" y="392" type="line"/>
      <point x="467" y="454" type="line"/>
    </contour>
  </outline>
</glyph>
<glyph name="uni2116" format="1">
  <advance width="1138.0"/>
  <unicode hex="2116"/>
  <outline>
    <contour>
      <point x="752" y="701"/>
      <point x="676" y="610"/>
      <point x="676" y="480" type="curve" smooth="yes"/>
      <point x="676" y="346"/>
      <point x="751" y="258"/>
      <point x="872" y="258" type="curve"/>
      <point x="993" y="258"/>
      <point x="1068" y="349"/>
      <point x="1068" y="480" type="curve" smooth="yes"/>
      <point x="1068" y="614"/>
      <point x="994" y="701"/>
      <point x="872" y="701" type="curve"/>
    </contour>
    <contour>
      <point x="939" y="633"/>
      <point x="978" y="585"/>
      <point x="978" y="480" type="curve" smooth="yes"/>
      <point x="978" y="374"/>
      <point x="939" y="326"/>
      <point x="872" y="326" type="curve"/>
      <point x="806" y="326"/>
      <point x="766" y="374"/>
      <point x="766" y="480" type="curve" smooth="yes"/>
      <point x="766" y="585"/>
      <point x="806" y="633"/>
      <point x="872" y="633" type="curve"/>
    </contour>
    <contour>
      <point x="1060" y="0" type="line"/>
      <point x="1060" y="77" type="line"/>
      <point x="684" y="77" type="line"/>
      <point x="684" y="0" type="line"/>
    </contour>
    <contour>
      <point x="494" y="689" type="line"/>
      <point x="494" y="313" type="line"/>
      <point x="494" y="229"/>
      <point x="505" y="119"/>
      <point x="507" y="103" type="curve"/>
      <point x="224" y="689" type="line"/>
      <point x="100" y="689" type="line"/>
      <point x="100" y="0" type="line"/>
      <point x="189" y="0" type="line"/>
      <point x="189" y="316" type="line"/>
      <point x="189" y="444"/>
      <point x="181" y="528"/>
      <point x="176" y="585" type="curve"/>
      <point x="456" y="0" type="line"/>
      <point x="583" y="0" type="line"/>
      <point x="583" y="689" type="line"/>
    </contour>
  </outline>
</glyph>
<glyph name="dagger.lf" format="1">
  <advance width="510.0"/>
  <outline>
    <contour>
      <point x="211" y="669" type="line"/>
      <point x="211" y="522" type="line"/>
      <point x="42" y="522" type="line"/>
      <point x="42" y="445" type="line"/>
      <point x="211" y="445" type="line"/>
      <point x="211" y="0" type="line"/>
      <point x="299" y="0" type="line"/>
      <point x="299" y="445" type="line"/>
      <point x="468" y="445" type="line"/>
      <point x="468" y="522" type="line"/>
      <point x="299" y="522" type="line"/>
      <point x="299" y="669" type="line"/>
    </contour>
  </outline>
</glyph>
<glyph name="daggerdbl.lf" format="1">
  <advance width="510.0"/>
  <outline>
    <contour>
      <point x="42" y="236" type="line"/>
      <point x="42" y="159" type="line"/>
      <point x="468" y="159" type="line"/>
      <point x="468" y="236" type="line"/>
    </contour>
    <contour>
      <point x="211" y="669" type="line"/>
      <point x="211" y="522" type="line"/>
      <point x="42" y="522" type="line"/>
      <point x="42" y="445" type="line"/>
      <point x="211" y="445" type="line"/>
      <point x="211" y="0" type="line"/>
      <point x="299" y="0" type="line"/>
      <point x="299" y="445" type="line"/>
      <point x="468" y="445" type="line"/>
      <point x="468" y="522" type="line"/>
      <point x="299" y="522" type="line"/>
      <point x="299" y="669" type="line"/>
    </contour>
  </outline>
</glyph>
<glyph name="dollar.tosf" format="1">
  <advance width="556"/>
  <outline>
    <contour>
      <point x="238" y="-6" type="line"/>
      <point x="238" y="-154" type="line"/>
      <point x="318" y="-154" type="line"/>
      <point x="318" y="3" type="line"/>
    </contour>
    <contour>
      <point x="238" y="825" type="line"/>
      <point x="238" y="663" type="line"/>
      <point x="318" y="665" type="line"/>
      <point x="318" y="825" type="line"/>
    </contour>
    <contour>
      <point x="155" y="681"/>
      <point x="67" y="609"/>
      <point x="67" y="506" type="curve" smooth="yes"/>
      <point x="67" y="403"/>
      <point x="135" y="355"/>
      <point x="260" y="314" type="curve" smooth="yes"/>
      <point x="371" y="278"/>
      <point x="402" y="249"/>
      <point x="402" y="184" type="curve" smooth="yes"/>
      <point x="402" y="104"/>
      <point x="337" y="65"/>
      <point x="261" y="65" type="curve" smooth="yes"/>
      <point x="193" y="65"/>
      <point x="139" y="91"/>
      <point x="94" y="135" type="curve"/>
      <point x="40" y="76" type="line"/>
      <point x="95" y="21"/>
      <point x="171" y="-11"/>
      <point x="262" y="-11" type="curve" smooth="yes"/>
      <point x="408" y="-11"/>
      <point x="496" y="71"/>
      <point x="496" y="187" type="curve" smooth="yes"/>
      <point x="496" y="315"/>
      <point x="405" y="356"/>
      <point x="303" y="389" type="curve" smooth="yes"/>
      <point x="186" y="427"/>
      <point x="159" y="454"/>
      <point x="159" y="510" type="curve" smooth="yes"/>
      <point x="159" y="574"/>
      <point x="213" y="605"/>
      <point x="277" y="605" type="curve" smooth="yes"/>
      <point x="328" y="605"/>
      <point x="376" y="588"/>
      <point x="422" y="545" type="curve"/>
      <point x="474" y="603" type="line"/>
      <point x="420" y="654"/>
      <point x="361" y="681"/>
      <point x="273" y="681" type="curve" smooth="yes"/>
    </contour>
    <contour>
      <point x="284" y="669" type="move" name="top"/>
    </contour>
    <contour>
      <point x="280" y="1" type="move" name="bottom"/>
    </contour>
  </outline>
</glyph>
<glyph name="eight.tosf" format="1">
  <advance width="556"/>
  <outline>
    <contour>
      <point x="178" y="679"/>
      <point x="77" y="620"/>
      <point x="77" y="507" type="curve" smooth="yes"/>
      <point x="77" y="433"/>
      <point x="114" y="379"/>
      <point x="199" y="343" type="curve"/>
      <point x="221" y="335" type="line"/>
      <point x="270" y="318" type="line" smooth="yes"/>
      <point x="378" y="282"/>
      <point x="418" y="250"/>
      <point x="418" y="178" type="curve" smooth="yes"/>
      <point x="418" y="108"/>
      <point x="367" y="61"/>
      <point x="281" y="61" type="curve" smooth="yes"/>
      <point x="196" y="61"/>
      <point x="145" y="104"/>
      <point x="145" y="177" type="curve" smooth="yes"/>
      <point x="145" y="254"/>
      <point x="181" y="302"/>
      <point x="255" y="333" type="curve"/>
      <point x="198" y="358" type="line"/>
      <point x="106" y="322"/>
      <point x="49" y="269"/>
      <point x="49" y="177" type="curve" smooth="yes"/>
      <point x="49" y="67"/>
      <point x="140" y="-12"/>
      <point x="280" y="-12" type="curve" smooth="yes"/>
      <point x="418" y="-12"/>
      <point x="514" y="67"/>
      <point x="514" y="179" type="curve" smooth="yes"/>
      <point x="514" y="268"/>
      <point x="458" y="329"/>
      <point x="355" y="366" type="curve"/>
      <point x="333" y="374" type="line"/>
      <point x="293" y="386" type="line" smooth="yes"/>
      <point x="214" y="410"/>
      <point x="167" y="437"/>
      <point x="167" y="506" type="curve" smooth="yes"/>
      <point x="167" y="573"/>
      <point x="211" y="610"/>
      <point x="282" y="610" type="curve" smooth="yes"/>
      <point x="357" y="610"/>
      <point x="397" y="569"/>
      <point x="397" y="507" type="curve" smooth="yes"/>
      <point x="397" y="444"/>
      <point x="366" y="408"/>
      <point x="292" y="371" type="curve"/>
      <point x="354" y="350" type="line"/>
      <point x="443" y="390"/>
      <point x="487" y="437"/>
      <point x="487" y="510" type="curve" smooth="yes"/>
      <point x="487" y="624"/>
      <point x="384" y="679"/>
      <point x="282" y="679" type="curve" smooth="yes"/>
    </contour>
  </outline>
</glyph>
<glyph name="eng.sc" format="1">
  <advance width="625.0"/>
  <outline>
    <contour>
      <point x="447" y="35" type="line"/>
      <point x="447" y="0" type="line" smooth="yes"/>
      <point x="447" y="-90"/>
      <point x="408" y="-118"/>
      <point x="332" y="-154" type="curve"/>
      <point x="358" y="-212" type="line"/>
      <point x="470" y="-162"/>
      <point x="525" y="-114"/>
      <point x="525" y="0" type="curve" smooth="yes"/>
      <point x="525" y="35" type="line"/>
    </contour>
    <contour>
      <point x="440" y="564" type="line"/>
      <point x="440" y="277" type="line"/>
      <point x="440" y="203"/>
      <point x="449" y="109"/>
      <point x="453" y="89" type="curve"/>
      <point x="220" y="564" type="line"/>
      <point x="100" y="564" type="line"/>
      <point x="100" y="0" type="line"/>
      <point x="185" y="0" type="line"/>
      <point x="185" y="246" type="line"/>
      <point x="185" y="351"/>
      <point x="177" y="416"/>
      <point x="172" y="473" type="curve"/>
      <point x="402" y="0" type="line"/>
      <point x="525" y="0" type="line"/>
      <point x="525" y="564" type="line"/>
    </contour>
  </outline>
</glyph>
<glyph name="eth.sc" format="1">
  <advance width="562.0"/>
  <outline>
    <contour>
      <point x="278" y="256" type="line"/>
      <point x="278" y="325" type="line"/>
      <point x="75" y="325" type="line"/>
      <point x="15" y="325" type="line"/>
      <point x="15" y="256" type="line"/>
    </contour>
    <contour>
      <point x="75" y="564" type="line"/>
      <point x="75" y="0" type="line"/>
      <point x="224" y="0" type="line" smooth="yes"/>
      <point x="356" y="0"/>
      <point x="507" y="56"/>
      <point x="507" y="286" type="curve" smooth="yes"/>
      <point x="507" y="518"/>
      <point x="360" y="564"/>
      <point x="207" y="564" type="curve" smooth="yes"/>
    </contour>
    <contour>
      <point x="319" y="493"/>
      <point x="410" y="465"/>
      <point x="410" y="286" type="curve" smooth="yes"/>
      <point x="410" y="108"/>
      <point x="323" y="70"/>
      <point x="231" y="70" type="curve" smooth="yes"/>
      <point x="167" y="70" type="line"/>
      <point x="167" y="493" type="line"/>
      <point x="225" y="493" type="line" smooth="yes"/>
    </contour>
  </outline>
</glyph>
<glyph name="five.tosf" format="1">
  <advance width="556"/>
  <outline>
    <contour>
      <point x="94" y="564" type="line"/>
      <point x="94" y="227" type="line"/>
      <point x="166" y="227" type="line"/>
      <point x="199" y="241"/>
      <point x="226" y="250"/>
      <point x="266" y="250" type="curve" smooth="yes"/>
      <point x="338" y="250"/>
      <point x="393" y="214"/>
      <point x="393" y="111" type="curve"/>
      <point x="393" y="13"/>
      <point x="338" y="-42"/>
      <point x="251" y="-42" type="curve"/>
      <point x="189" y="-42"/>
      <point x="145" y="-21"/>
      <point x="105" y="22" type="curve"/>
      <point x="49" y="-32" type="line"/>
      <point x="101" y="-85"/>
      <point x="163" y="-117"/>
      <point x="252" y="-117" type="curve"/>
      <point x="394" y="-117"/>
      <point x="489" y="-24"/>
      <point x="489" y="109" type="curve"/>
      <point x="489" y="242"/>
      <point x="410" y="321"/>
      <point x="294" y="321" type="curve" smooth="yes"/>
      <point x="252" y="321"/>
      <point x="218" y="314"/>
      <point x="182" y="295" type="curve"/>
      <point x="182" y="492" type="line"/>
      <point x="453" y="492" type="line"/>
      <point x="466" y="564" type="line"/>
    </contour>
  </outline>
</glyph>
<glyph name="hbar.sc" format="1">
  <advance width="592.0"/>
  <outline>
    <contour>
      <point x="503" y="481" type="line"/>
      <point x="35" y="481" type="line"/>
      <point x="35" y="422" type="line"/>
      <point x="89" y="422" type="line"/>
      <point x="557" y="422" type="line"/>
      <point x="557" y="481" type="line"/>
    </contour>
    <contour>
      <point x="420" y="564" type="line"/>
      <point x="420" y="334" type="line"/>
      <point x="181" y="334" type="line"/>
      <point x="181" y="564" type="line"/>
      <point x="89" y="564" type="line"/>
      <point x="89" y="0" type="line"/>
      <point x="181" y="0" type="line"/>
      <point x="181" y="259" type="line"/>
      <point x="420" y="259" type="line"/>
      <point x="420" y="0" type="line"/>
      <point x="514" y="0" type="line"/>
      <point x="514" y="564" type="line"/>
    </contour>
  </outline>
</glyph>
<glyph name="lslash.sc" format="1">
  <advance width="461.0"/>
  <outline>
    <contour>
      <point x="107" y="271" type="line"/>
      <point x="22" y="218" type="line"/>
      <point x="57" y="162" type="line"/>
      <point x="374" y="358" type="line"/>
      <point x="339" y="414" type="line"/>
    </contour>
    <contour>
      <point x="105" y="564" type="line"/>
      <point x="105" y="0" type="line"/>
      <point x="430" y="0" type="line"/>
      <point x="441" y="78" type="line"/>
      <point x="197" y="78" type="line"/>
      <point x="197" y="564" type="line"/>
    </contour>
  </outline>
</glyph>
<glyph name="minus.lf" format="1">
  <advance width="500.0"/>
  <outline>
    <contour>
      <point x="438" y="294" type="line"/>
      <point x="438" y="371" type="line"/>
      <point x="62" y="371" type="line"/>
      <point x="62" y="294" type="line"/>
    </contour>
  </outline>
</glyph>
<glyph name="nine.tosf" format="1">
  <advance width="556"/>
  <outline>
    <contour>
      <point x="153" y="574"/>
      <point x="53" y="493"/>
      <point x="53" y="355" type="curve" smooth="yes"/>
      <point x="53" y="223"/>
      <point x="136" y="141"/>
      <point x="243" y="141" type="curve"/>
      <point x="320" y="141"/>
      <point x="376" y="182"/>
      <point x="404" y="228" type="curve"/>
      <point x="409" y="310" type="line"/>
      <point x="376" y="252"/>
      <point x="329" y="213"/>
      <point x="262" y="213" type="curve"/>
      <point x="194" y="213"/>
      <point x="146" y="258"/>
      <point x="146" y="353" type="curve" smooth="yes"/>
      <point x="146" y="447"/>
      <point x="193" y="501"/>
      <point x="274" y="501" type="curve" smooth="yes"/>
      <point x="363" y="501"/>
      <point x="406" y="439"/>
      <point x="399" y="277" type="curve"/>
      <point x="398" y="231" type="line"/>
      <point x="396" y="85"/>
      <point x="289" y="-1"/>
      <point x="106" y="-50" type="curve"/>
      <point x="127" y="-119" type="line"/>
      <point x="384" y="-48"/>
      <point x="493" y="53"/>
      <point x="493" y="315" type="curve" smooth="yes"/>
      <point x="493" y="471"/>
      <point x="419" y="574"/>
      <point x="272" y="574" type="curve" smooth="yes"/>
    </contour>
  </outline>
</glyph>
<glyph name="notequal.lf" format="1">
  <advance width="500.0"/>
  <outline>
    <contour>
      <point x="75" y="90" type="line"/>
      <point x="126" y="61" type="line"/>
      <point x="427" y="569" type="line"/>
      <point x="377" y="596" type="line"/>
    </contour>
    <contour>
      <point x="438" y="389" type="line"/>
      <point x="438" y="466" type="line"/>
      <point x="62" y="466" type="line"/>
      <point x="62" y="389" type="line"/>
    </contour>
    <contour>
      <point x="438" y="196" type="line"/>
      <point x="438" y="273" type="line"/>
      <point x="62" y="273" type="line"/>
      <point x="62" y="196" type="line"/>
    </contour>
  </outline>
</glyph>
<glyph name="one.tosf" format="1">
  <advance width="556"/>
  <outline>
    <contour>
      <point x="281" y="564" type="line"/>
      <point x="74" y="436" type="line"/>
      <point x="114" y="371" type="line"/>
      <point x="270" y="466" type="line"/>
      <point x="270" y="10" type="line"/>
      <point x="362" y="10" type="line"/>
      <point x="362" y="564" type="line"/>
    </contour>
    <contour>
      <point x="101" y="74" type="line"/>
      <point x="101" y="0" type="line"/>
      <point x="503" y="0" type="line"/>
      <point x="503" y="74" type="line"/>
    </contour>
  </outline>
</glyph>
<glyph name="seven.tosf" format="1">
  <advance width="556"/>
  <outline>
    <contour>
      <point x="49" y="564" type="line"/>
      <point x="49" y="489" type="line"/>
      <point x="370" y="489" type="line"/>
      <point x="129" y="-91" type="line"/>
      <point x="213" y="-119" type="line"/>
      <point x="463" y="495" type="line"/>
      <point x="463" y="564" type="line"/>
    </contour>
  </outline>
</glyph>
<glyph name="six.tosf" format="1">
  <advance width="556"/>
  <outline>
    <contour>
      <point x="157" y="679"/>
      <point x="62" y="533"/>
      <point x="62" y="314" type="curve" smooth="yes"/>
      <point x="62" y="122"/>
      <point x="124" y="-12"/>
      <point x="293" y="-12" type="curve" smooth="yes"/>
      <point x="414" y="-12"/>
      <point x="511" y="81"/>
      <point x="511" y="227" type="curve" smooth="yes"/>
      <point x="511" y="370"/>
      <point x="422" y="440"/>
      <point x="321" y="440" type="curve"/>
      <point x="248" y="440"/>
      <point x="190" y="409"/>
      <point x="144" y="335" type="curve"/>
      <point x="146" y="258" type="line"/>
      <point x="180" y="322"/>
      <point x="234" y="367"/>
      <point x="305" y="367" type="curve"/>
      <point x="371" y="367"/>
      <point x="418" y="330"/>
      <point x="418" y="224" type="curve" smooth="yes"/>
      <point x="418" y="126"/>
      <point x="375" y="61"/>
      <point x="293" y="61" type="curve" smooth="yes"/>
      <point x="193" y="61"/>
      <point x="155" y="137"/>
      <point x="155" y="300" type="curve"/>
      <point x="154" y="329" type="line"/>
      <point x="153" y="495"/>
      <point x="212" y="606"/>
      <point x="322" y="606" type="curve"/>
      <point x="362" y="606"/>
      <point x="395" y="596"/>
      <point x="428" y="577" type="curve"/>
      <point x="464" y="638" type="line"/>
      <point x="425" y="664"/>
      <point x="380" y="679"/>
      <point x="322" y="679" type="curve"/>
    </contour>
  </outline>
</glyph>
<glyph name="sterling.tosf" format="1">
  <advance width="556"/>
  <outline>
    <contour>
      <point x="217" y="679"/>
      <point x="150" y="600"/>
      <point x="150" y="493" type="curve"/>
      <point x="150" y="205" type="line"/>
      <point x="150" y="123"/>
      <point x="136" y="98"/>
      <point x="68" y="73" type="curve"/>
      <point x="68" y="0" type="line"/>
      <point x="484" y="0" type="line"/>
      <point x="495" y="77" type="line"/>
      <point x="180" y="77" type="line"/>
      <point x="229" y="104"/>
      <point x="241" y="139"/>
      <point x="241" y="204" type="curve"/>
      <point x="241" y="494" type="line"/>
      <point x="241" y="566"/>
      <point x="279" y="604"/>
      <point x="338" y="604" type="curve" smooth="yes"/>
      <point x="383" y="604"/>
      <point x="416" y="587"/>
      <point x="447" y="550" type="curve"/>
      <point x="508" y="596" type="line"/>
      <point x="460" y="653"/>
      <point x="402" y="679"/>
      <point x="334" y="679" type="curve" smooth="yes"/>
    </contour>
    <contour>
      <point x="84" y="382" type="line"/>
      <point x="84" y="322" type="line"/>
      <point x="444" y="322" type="line"/>
      <point x="444" y="382" type="line"/>
    </contour>
  </outline>
</glyph>
<glyph name="tbar.sc" format="1">
  <advance width="456.0"/>
  <outline>
    <contour>
      <point x="395" y="347" type="line"/>
      <point x="67" y="347" type="line"/>
      <point x="67" y="283" type="line"/>
      <point x="395" y="283" type="line"/>
    </contour>
    <contour>
      <point x="15" y="565" type="line"/>
      <point x="15" y="489" type="line"/>
      <point x="183" y="489" type="line"/>
      <point x="183" y="0" type="line"/>
      <point x="275" y="0" type="line"/>
      <point x="275" y="489" type="line"/>
      <point x="437" y="489" type="line"/>
      <point x="446" y="565" type="line"/>
    </contour>
  </outline>
</glyph>
<glyph name="three.tosf" format="1">
  <advance width="556"/>
  <outline>
    <contour>
      <point x="176" y="574"/>
      <point x="114" y="548"/>
      <point x="57" y="495" type="curve"/>
      <point x="105" y="440" type="line"/>
      <point x="150" y="482"/>
      <point x="190" y="500"/>
      <point x="247" y="500" type="curve" smooth="yes"/>
      <point x="322" y="500"/>
      <point x="366" y="462"/>
      <point x="366" y="401" type="curve" smooth="yes"/>
      <point x="366" y="327"/>
      <point x="311" y="287"/>
      <point x="237" y="287" type="curve" smooth="yes"/>
      <point x="199" y="287" type="line"/>
      <point x="188" y="216" type="line"/>
      <point x="242" y="216" type="line" smooth="yes"/>
      <point x="331" y="216"/>
      <point x="383" y="178"/>
      <point x="383" y="92" type="curve" smooth="yes"/>
      <point x="383" y="10"/>
      <point x="332" y="-42"/>
      <point x="240" y="-42" type="curve" smooth="yes"/>
      <point x="182" y="-42"/>
      <point x="136" y="-22"/>
      <point x="94" y="25" type="curve"/>
      <point x="38" y="-27" type="line"/>
      <point x="89" y="-88"/>
      <point x="159" y="-117"/>
      <point x="243" y="-117" type="curve" smooth="yes"/>
      <point x="390" y="-117"/>
      <point x="479" y="-29"/>
      <point x="479" y="87" type="curve" smooth="yes"/>
      <point x="479" y="193"/>
      <point x="416" y="246"/>
      <point x="328" y="256" type="curve"/>
      <point x="402" y="273"/>
      <point x="458" y="328"/>
      <point x="458" y="407" type="curve" smooth="yes"/>
      <point x="458" y="495"/>
      <point x="388" y="574"/>
      <point x="255" y="574" type="curve" smooth="yes"/>
    </contour>
  </outline>
</glyph>
<glyph name="two.tosf" format="1">
  <advance width="556"/>
  <outline>
    <contour>
      <point x="163" y="574"/>
      <point x="97" y="537"/>
      <point x="42" y="468" type="curve"/>
      <point x="101" y="420" type="line"/>
      <point x="149" y="478"/>
      <point x="194" y="499"/>
      <point x="253" y="499" type="curve" smooth="yes"/>
      <point x="323" y="499"/>
      <point x="371" y="458"/>
      <point x="371" y="394" type="curve" smooth="yes"/>
      <point x="371" y="314"/>
      <point x="340" y="269"/>
      <point x="56" y="73" type="curve"/>
      <point x="56" y="0" type="line"/>
      <point x="467" y="0" type="line"/>
      <point x="478" y="77" type="line"/>
      <point x="175" y="77" type="line"/>
      <point x="443" y="241"/>
      <point x="468" y="306"/>
      <point x="468" y="397" type="curve" smooth="yes"/>
      <point x="468" y="498"/>
      <point x="386" y="574"/>
      <point x="255" y="574" type="curve" smooth="yes"/>
    </contour>
  </outline>
</glyph>
<glyph name="uni0434.sc" format="1">
  <advance width="553.0"/>
  <outline>
    <contour>
      <point x="105" y="68" type="line"/>
      <point x="173" y="112"/>
      <point x="183" y="175"/>
      <point x="211" y="399" type="curve" smooth="yes"/>
      <point x="223" y="491" type="line"/>
      <point x="361" y="491" type="line"/>
      <point x="361" y="74" type="line"/>
      <point x="37" y="74" type="line"/>
      <point x="37" y="0" type="line"/>
      <point x="453" y="0" type="line"/>
      <point x="453" y="564" type="line"/>
      <point x="143" y="564" type="line"/>
      <point x="121" y="398" type="line" smooth="yes"/>
      <point x="91" y="163"/>
      <point x="81" y="111"/>
      <point x="31" y="68" type="curve"/>
    </contour>
    <contour>
      <point x="383" y="74" type="line"/>
      <point x="383" y="0" type="line"/>
      <point x="419" y="0" type="line"/>
      <point x="434" y="-150" type="line"/>
      <point x="509" y="-150" type="line"/>
      <point x="509" y="74" type="line"/>
    </contour>
    <contour>
      <point x="116" y="74" type="line"/>
      <point x="-10" y="74" type="line"/>
      <point x="-10" y="-150" type="line"/>
      <point x="65" y="-150" type="line"/>
      <point x="80" y="0" type="line"/>
      <point x="116" y="0" type="line"/>
    </contour>
  </outline>
</glyph>
<glyph name="uni044A.sc" format="1">
  <advance width="569.0"/>
  <outline>
    <contour>
      <point x="238" y="564" type="line"/>
      <point x="0" y="564" type="line"/>
      <point x="0" y="492" type="line"/>
      <point x="146" y="492" type="line"/>
    </contour>
    <contour>
      <point x="146" y="0" type="line"/>
      <point x="312" y="0" type="line" smooth="yes"/>
      <point x="447" y="0"/>
      <point x="544" y="52"/>
      <point x="544" y="185" type="curve" smooth="yes"/>
      <point x="544" y="305"/>
      <point x="456" y="362"/>
      <point x="315" y="362" type="curve" smooth="yes"/>
      <point x="225" y="362" type="line"/>
      <point x="225" y="293" type="line"/>
      <point x="313" y="293" type="line" smooth="yes"/>
      <point x="398" y="293"/>
      <point x="446" y="263"/>
      <point x="446" y="184" type="curve" smooth="yes"/>
      <point x="446" y="94"/>
      <point x="391" y="71"/>
      <point x="315" y="71" type="curve" smooth="yes"/>
      <point x="238" y="71" type="line"/>
      <point x="238" y="564" type="line"/>
      <point x="146" y="564" type="line"/>
    </contour>
  </outline>
</glyph>
<glyph name="uni045B.sc" format="1">
  <advance width="620.0"/>
  <outline>
    <contour>
      <point x="15" y="565" type="line"/>
      <point x="15" y="493" type="line"/>
      <point x="413" y="493" type="line"/>
      <point x="421" y="565" type="line"/>
    </contour>
    <contour>
      <point x="168" y="565" type="line"/>
      <point x="168" y="0" type="line"/>
      <point x="260" y="0" type="line"/>
      <point x="260" y="565" type="line"/>
    </contour>
    <contour>
      <point x="334" y="374"/>
      <point x="287" y="350"/>
      <point x="251" y="312" type="curve"/>
      <point x="252" y="235" type="line"/>
      <point x="284" y="275"/>
      <point x="322" y="300"/>
      <point x="384" y="300" type="curve" smooth="yes"/>
      <point x="459" y="300"/>
      <point x="493" y="262"/>
      <point x="493" y="191" type="curve" smooth="yes"/>
      <point x="493" y="0" type="line"/>
      <point x="585" y="0" type="line"/>
      <point x="585" y="191" type="line" smooth="yes"/>
      <point x="585" y="306"/>
      <point x="521" y="374"/>
      <point x="406" y="374" type="curve"/>
    </contour>
  </outline>
</glyph>
<glyph name="uni045D.sc" format="1">
  <advance width="625.0"/>
  <outline>
    <component base="grave.sc" xOffset="163"/>
    <component base="uni0438.sc"/>
    <contour>
      <point x="313" y="564" type="move" name="top"/>
    </contour>
  </outline>
</glyph>
<glyph name="uni0491.sc" format="1">
  <advance width="445.0"/>
  <outline>
    <contour>
      <point x="435" y="564" type="line"/>
      <point x="435" y="689" type="line"/>
      <point x="348" y="689" type="line"/>
      <point x="348" y="554" type="line"/>
    </contour>
    <contour>
      <point x="100" y="0" type="line"/>
      <point x="192" y="0" type="line"/>
      <point x="192" y="504" type="line"/>
      <point x="100" y="564" type="line"/>
    </contour>
    <contour>
      <point x="100" y="564" type="line"/>
      <point x="179" y="487" type="line"/>
      <point x="422" y="487" type="line"/>
      <point x="435" y="564" type="line"/>
    </contour>
  </outline>
</glyph>
<glyph name="uni0493.sc" format="1">
  <advance width="442.0"/>
  <outline>
    <contour>
      <point x="97" y="336" type="line"/>
      <point x="10" y="336" type="line"/>
      <point x="10" y="264" type="line"/>
      <point x="328" y="264" type="line"/>
      <point x="328" y="336" type="line"/>
    </contour>
    <contour>
      <point x="97" y="0" type="line"/>
      <point x="189" y="0" type="line"/>
      <point x="189" y="504" type="line"/>
      <point x="97" y="564" type="line"/>
    </contour>
    <contour>
      <point x="97" y="564" type="line"/>
      <point x="176" y="487" type="line"/>
      <point x="419" y="487" type="line"/>
      <point x="432" y="564" type="line"/>
    </contour>
  </outline>
</glyph>
<glyph name="uni04A1.sc" format="1">
  <advance width="605.0"/>
  <outline>
    <contour>
      <point x="238" y="564" type="line"/>
      <point x="0" y="564" type="line"/>
      <point x="0" y="492" type="line"/>
      <point x="146" y="492" type="line"/>
    </contour>
    <contour>
      <point x="479" y="564" type="line"/>
      <point x="292" y="332" type="line"/>
      <point x="233" y="332" type="line"/>
      <point x="233" y="564" type="line"/>
      <point x="141" y="564" type="line"/>
      <point x="141" y="0" type="line"/>
      <point x="233" y="0" type="line"/>
      <point x="233" y="262" type="line"/>
      <point x="290" y="262" type="line"/>
      <point x="488" y="0" type="line"/>
      <point x="595" y="0" type="line"/>
      <point x="366" y="299" type="line"/>
      <point x="578" y="564" type="line"/>
    </contour>
  </outline>
</glyph>
<glyph name="uni04B1.sc" format="1">
  <advance width="488.0"/>
  <outline>
    <contour>
      <point x="88" y="252" type="line"/>
      <point x="88" y="182" type="line"/>
      <point x="399" y="182" type="line"/>
      <point x="399" y="252" type="line"/>
    </contour>
    <contour>
      <point x="386" y="564" type="line"/>
      <point x="247" y="292" type="line"/>
      <point x="106" y="564" type="line"/>
      <point x="5" y="564" type="line"/>
      <point x="197" y="215" type="line"/>
      <point x="197" y="0" type="line"/>
      <point x="290" y="0" type="line"/>
      <point x="290" y="216" type="line"/>
      <point x="483" y="564" type="line"/>
    </contour>
  </outline>
</glyph>
<glyph name="uni0525.sc" format="1">
  <advance width="642.0"/>
  <outline>
    <contour>
      <point x="522" y="0" type="line"/>
      <point x="522" y="564" type="line"/>
      <point x="100" y="564" type="line"/>
      <point x="100" y="0" type="line"/>
      <point x="192" y="0" type="line"/>
      <point x="192" y="489" type="line"/>
      <point x="430" y="489" type="line"/>
      <point x="430" y="0" type="line"/>
    </contour>
    <contour>
      <point x="472" y="74" type="line"/>
      <point x="472" y="0" type="line"/>
      <point x="508" y="0" type="line"/>
      <point x="523" y="-150" type="line"/>
      <point x="598" y="-150" type="line"/>
      <point x="598" y="74" type="line"/>
    </contour>
  </outline>
</glyph>
